# xmcd CD database file
#
# Track frame offsets:
#	150
#	21854
#	38632
#	64376
#	79300
#	106500
#	132346
#	153723
#	169241
#	186186
#
# Disc length: 2697 seconds
#
# Revision: 4
# Processed by: cddbd v1.5.2PL0 Copyright (c) Steve Scherf et al.
# Submitted via: CDex 1.50
#
DISCID=820a870a
DTITLE=Antje Uhle Trio - Piano Voyage
DYEAR=2008
DGENRE=Jazz
TTITLE0=Learn To Fly
TTITLE1=On The Way
TTITLE2=Maria
TTITLE3=Sleepless In The City
TTITLE4=Secret Temple
TTITLE5=Angel Eyes
TTITLE6=The Peace Of This Place
TTITLE7=Paris Memoires
TTITLE8=When Life Gets Easy
TTITLE9=Cowbell Blues
EXTD=YEAR: 2008
EXTT0=
EXTT1=
EXTT2=
EXTT3=
EXTT4=
EXTT5=
EXTT6=
EXTT7=
EXTT8=
EXTT9=
PLAYORDER=
